# xmcd
#
# Track frame offsets:
#	150
#	13403
#	27879
#	44278
#	62177
#	78233
#	93755
#	105049
#	122184
#	136512
#	150963
#	166395
#	179537
#	196884
#	215892
#
# Disc length: 3075 seconds
#
# Revision: 0
# Processed by: cddbd v1.5.2PL0 Copyright (c) Steve Scherf et al.
# Submitted via: dBpowerAMP V4.0
#
DISCID=bb0c010f
DTITLE=Everlast - Songs Of The Ungrateful Living
DYEAR=2011
DGENRE=Hip-Hop
TTITLE0=Long At All
TTITLE1=Gone For Good
TTITLE2=I Get By
TTITLE3=Little Miss America
TTITLE4=My House
TTITLE5=Long Time
TTITLE6=Friday The 13th
TTITLE7=The Crown
TTITLE8=Sixty-Five Roses
TTITLE9=Moneymaker
TTITLE10=The Rain
TTITLE11=Some Of Us Pray
TTITLE12=I'll Be There For You
TTITLE13=Even God Don't Know
TTITLE14=A Change Is Gonna Come
EXTD=
EXTT0=
EXTT1=
EXTT2=
EXTT3=
EXTT4=
EXTT5=
EXTT6=
EXTT7=
EXTT8=
EXTT9=
EXTT10=
EXTT11=
EXTT12=
EXTT13=
EXTT14=
PLAYORDER=
